<svg width="29" height="14" viewBox="0 0 29 14" fill="none" xmlns="http://www.w3.org/2000/svg">
<path d="M26.5298 3.15065L28.9101 3.14218L27.9275 0.897778C27.8512 0.728389 27.6903 0.618286 27.5039 0.618286L25.1237 0.626755L26.1148 2.87116C26.1825 3.04055 26.352 3.15065 26.5298 3.15065Z" fill="#FEC214"/>
<path d="M26.0724 3.67579L24.9712 5.26804L24.7679 5.56447L27.1651 5.556C27.3176 5.556 27.4531 5.47978 27.5378 5.36121L28.8423 3.46405L26.4451 3.47252C26.3011 3.47252 26.1571 3.54874 26.0724 3.67579Z" fill="#F99E1D"/>
<path d="M25.8353 3.05749L24.8442 0.796143L23.5397 2.68483C23.4466 2.82034 23.4296 2.98126 23.4974 3.13371L24.4884 5.39505L25.7929 3.50637C25.8861 3.37086 25.903 3.20994 25.8353 3.05749Z" fill="#F68B21"/>
<path d="M8.49598 3.30307C8.49598 3.60797 8.25033 3.85359 7.94539 3.85359H5.79387V1.06714H4.30305V2.33756V5.00543C4.30305 5.31033 4.05741 5.55595 3.75247 5.55595H3.28659H3.21035H2.12612C1.82118 5.55595 1.57553 5.31033 1.57553 5.00543V1.10949H0.0847168V5.25105C0.0847168 5.46278 0.160951 5.66605 0.28801 5.82697C0.457421 6.03024 0.711538 6.14881 0.974125 6.14881H3.20188H3.27812H4.88752C5.15011 6.14881 5.40422 6.03024 5.57363 5.82697C5.70916 5.66605 5.77693 5.46278 5.77693 5.25105V4.43798H9.07197C9.33456 4.43798 9.58868 4.31941 9.75809 4.11614C9.89362 3.95522 9.96138 3.75195 9.96138 3.54022V1.06714H8.47056V3.30307H8.49598Z" fill="white"/>
<path d="M21.3797 3.42165V2.25286V2.0496C21.3797 1.83786 21.3034 1.63459 21.1764 1.47367C21.007 1.27041 20.7528 1.15183 20.4903 1.15183H14.3406V1.73623H19.3383C19.6432 1.73623 19.8888 1.98184 19.8888 2.28674V2.54929V3.85359H12.8752V1.06714H11.3844V5.00543C11.3844 5.31033 11.1388 5.55595 10.8338 5.55595H10.5374V6.18269H11.9773C12.2399 6.18269 12.494 6.06411 12.6635 5.86085C12.799 5.69993 12.8668 5.49666 12.8668 5.28492V4.42951H21.5067C21.5067 4.43798 21.3797 4.02298 21.3797 3.42165Z" fill="white"/>
<path d="M9.68186 5.55591H8.19104V6.18265H9.68186V5.55591Z" fill="white"/>
<path d="M7.86918 5.55591H6.37836V6.18265H7.86918V5.55591Z" fill="white"/>
<path d="M3.72702 0H2.23621V0.626739H3.72702V0Z" fill="white"/>
<path d="M12.8668 0H11.376V0.626739H12.8668V0Z" fill="white"/>
<path d="M18.542 0H17.0512V0.626739H18.542V0Z" fill="white"/>
<path d="M4.26916 7.95288H3.61693L1.45694 11.6032V7.95288H0V13.9916H1.45694V12.3062L2.82916 13.9916H4.2861L2.21082 11.4423L4.26916 7.95288Z" fill="white"/>
<path d="M7.72512 11.7305H6.32748V7.95312H4.87054V13.9918H6.32748V12.3149H7.72512V13.9918H9.18206V7.95312H7.72512V11.7305Z" fill="white"/>
<path d="M12.8414 11.7051H11.4437V8.86783C11.4437 8.6815 11.5962 8.52905 11.7826 8.52905H12.5026C12.6889 8.52905 12.8414 8.6815 12.8414 8.86783V11.7051ZM13.4259 7.95312H10.8593C10.5967 7.95312 10.351 8.0717 10.1901 8.26649C10.063 8.42741 9.98682 8.62221 9.98682 8.82548V13.9918H11.4437V12.281H12.8414V13.9918H14.2983V8.82548C14.2983 8.62221 14.2306 8.41894 14.095 8.26649C13.9256 8.06323 13.68 7.95312 13.4259 7.95312Z" fill="white"/>
<path d="M15.2639 8.52905H17.4408L14.8319 13.7124V13.9918H18.7114V13.4159H16.3143L18.9401 8.23262V7.95312H15.2639V8.52905Z" fill="white"/>
<path d="M22.3961 11.3748C22.3961 11.5611 22.2437 11.7136 22.0573 11.7136H21.3373C21.151 11.7136 20.9985 11.5611 20.9985 11.3748V7.95312H19.5416V10.9428V11.4256C19.5416 11.6289 19.6093 11.8321 19.7449 11.9846C19.9143 12.1879 20.1599 12.298 20.414 12.298H20.8291C20.8714 12.3064 20.9138 12.3064 20.9561 12.3064V14.0003H22.4216V12.3064H22.5063C22.5486 12.3064 22.5825 12.3064 22.6248 12.298H22.9721C23.2347 12.298 23.4804 12.1794 23.6413 11.9846C23.7684 11.8237 23.8446 11.6289 23.8446 11.4256V11.2054V7.95312H22.3877V11.3748H22.3961Z" fill="white"/>
<path d="M28.7067 8.26649C28.5373 8.06323 28.2917 7.95312 28.0376 7.95312H24.5985V13.9918H26.0554V8.52905H26.911C27.2074 8.52905 27.4446 8.76619 27.4446 9.06262V13.9918H28.9016V8.82548C28.91 8.62221 28.8423 8.41894 28.7067 8.26649Z" fill="white"/>
</svg>
