<svg width="134" height="64" viewBox="0 0 134 64" fill="none" xmlns="http://www.w3.org/2000/svg">
<path d="M122.192 14.4029L133.071 14.3642L128.58 4.10405C128.232 3.3297 127.496 2.82637 126.644 2.82637L115.765 2.86509L120.295 13.1252C120.604 13.8996 121.379 14.4029 122.192 14.4029Z" fill="#FEC214"/>
<path d="M120.101 16.8034L115.068 24.0823L114.139 25.4374L125.096 25.3987C125.793 25.3987 126.412 25.0502 126.799 24.5082L132.762 15.8354L121.805 15.8742C121.146 15.8742 120.488 16.2226 120.101 16.8034Z" fill="#F99E1D"/>
<path d="M119.017 13.977L114.487 3.63943L108.525 12.2734C108.099 12.8929 108.021 13.6285 108.331 14.3255L112.861 24.663L118.823 16.029C119.249 15.4095 119.327 14.6739 119.017 13.977Z" fill="#F68B21"/>
<path d="M39.7622 15.0998C39.7622 16.4936 38.6394 17.6165 37.2456 17.6165H27.4113V4.8784H20.597V10.686V22.882C20.597 24.2759 19.4742 25.3987 18.0804 25.3987H15.9509H15.6025H10.6467C9.25282 25.3987 8.13001 24.2759 8.13001 22.882V5.07199H1.31573V24.0048C1.31573 24.9728 1.66419 25.902 2.24495 26.6376C3.0193 27.5669 4.18083 28.1089 5.38107 28.1089H15.5638H15.9122H23.2686C24.4688 28.1089 25.6303 27.5669 26.4047 26.6376C27.0241 25.902 27.3339 24.9728 27.3339 24.0048V20.288H42.395C43.5952 20.288 44.7568 19.7459 45.5311 18.8167C46.1506 18.0811 46.4603 17.1518 46.4603 16.1839V4.8784H39.646V15.0998H39.7622Z" fill="#452C7A"/>
<path d="M98.6515 15.6419V10.2989V9.36963C98.6515 8.4017 98.3031 7.47248 97.7223 6.73684C96.9479 5.80762 95.7864 5.26558 94.5862 5.26558H66.4773V7.93708H89.3206C90.7144 7.93708 91.8372 9.05989 91.8372 10.4537V11.654V17.6165H59.7792V4.8784H52.9649V22.882C52.9649 24.2759 51.8421 25.3987 50.4483 25.3987H49.0931V28.2638H55.6751C56.8754 28.2638 58.0369 27.7217 58.8112 26.7925C59.4307 26.0569 59.7404 25.1276 59.7404 24.1597V20.2492H99.2323C99.2323 20.288 98.6515 18.3908 98.6515 15.6419Z" fill="#452C7A"/>
<path d="M45.1827 25.3987H38.3684V28.2638H45.1827V25.3987Z" fill="#452C7A"/>
<path d="M36.8971 25.3987H30.0828V28.2638H36.8971V25.3987Z" fill="#452C7A"/>
<path d="M17.9642 0H11.15V2.86509H17.9642V0Z" fill="#452C7A"/>
<path d="M59.7404 0H52.9261V2.86509H59.7404V0Z" fill="#452C7A"/>
<path d="M85.6812 0H78.8669V2.86509H85.6812V0Z" fill="#452C7A"/>
<path d="M20.4422 36.3557H17.461L7.588 53.043V36.3557H0.928589V63.9613H7.588V56.2565L13.8602 63.9613H20.5196L11.0339 52.3073L20.4422 36.3557Z" fill="#452C7A"/>
<path d="M36.239 53.6237H29.8506V36.3557H23.1912V63.9613H29.8506V56.2952H36.239V63.9613H42.8984V36.3557H36.239V53.6237Z" fill="#452C7A"/>
<path d="M59.6243 53.5076H53.2359V40.5372C53.2359 39.6854 53.9328 38.9885 54.7846 38.9885H58.0756C58.9273 38.9885 59.6243 39.6854 59.6243 40.5372V53.5076ZM62.2958 36.3557H50.5644C49.3641 36.3557 48.2413 36.8978 47.5057 37.7883C46.9249 38.5239 46.5765 39.4144 46.5765 40.3436V63.9613H53.2359V56.1404H59.6243V63.9613H66.2837V40.3436C66.2837 39.4144 65.9739 38.4852 65.3545 37.7883C64.5801 36.859 63.4573 36.3557 62.2958 36.3557Z" fill="#452C7A"/>
<path d="M70.6975 38.9885H80.6479L68.7229 62.6836V63.9613H86.4555V61.3285H75.4985L87.5009 37.6334V36.3557H70.6975V38.9885Z" fill="#452C7A"/>
<path d="M103.298 51.9976C103.298 52.8494 102.601 53.5463 101.749 53.5463H98.458C97.6062 53.5463 96.9093 52.8494 96.9093 51.9976V36.3557H90.2499V50.023V52.2299C90.2499 53.1591 90.5596 54.0883 91.1791 54.7852C91.9534 55.7145 93.0762 56.2178 94.2378 56.2178H96.1349C96.3285 56.2565 96.5221 56.2565 96.7157 56.2565V64H103.414V56.2565H103.801C103.995 56.2565 104.149 56.2565 104.343 56.2178H105.93C107.131 56.2178 108.253 55.6757 108.989 54.7852C109.57 54.0496 109.918 53.1591 109.918 52.2299V51.2232V36.3557H103.259V51.9976H103.298Z" fill="#452C7A"/>
<path d="M132.142 37.7883C131.368 36.859 130.245 36.3557 129.083 36.3557H113.364V63.9613H120.024V38.9885H123.934C125.289 38.9885 126.373 40.0726 126.373 41.4277V63.9613H133.033V40.3436C133.071 39.4144 132.762 38.4852 132.142 37.7883Z" fill="#452C7A"/>
</svg>
