<svg width="316" height="316" viewBox="0 0 316 316" fill="none" xmlns="http://www.w3.org/2000/svg">
<g clip-path="url(#clip0_3_3218)">
<path opacity="0.12" d="M277.435 271.096C271.025 277.86 264.964 282.215 260.179 285.653C203.895 326.135 137.284 314.326 123.132 311.453C102.23 307.2 61.8253 298.977 32.6056 264.547C-11.5908 212.461 -4.70631 130.402 29.5696 76.2232C35.8447 66.315 68.9582 11.3221 136.291 2.49968C177.034 -2.83899 224.526 7.92885 258.926 36.8052C331.123 97.4196 325.977 219.881 277.435 271.096Z" fill="#452C7A"/>
<path d="M230.858 186.978C230.858 186.978 229.909 146.814 248.362 136.068C266.815 125.323 301.915 118.605 303.235 60.9311C304.003 27.1685 304.838 12.4079 305.402 5.97209C305.617 3.4611 303.393 1.43647 300.922 1.90022C283.439 5.20296 226.648 18.7872 214.741 57.6283C200.622 103.674 230.858 186.978 230.858 186.978Z" fill="#FEC214"/>
<path opacity="0.34" d="M287.39 17.9389C268.203 35.086 246.015 65.4441 234.187 95.8021C232.663 100.801 228.228 111.445 226.298 130.345C224.571 146.112 225.429 162.773 227.517 173.79C227.652 174.491 228.318 174.944 229.018 174.808C230.214 174.582 230.056 173.292 230.045 173.337C227.664 154.494 228.646 131.046 234.119 109.895C241.105 83.9145 256.68 58.7255 272.785 37.3594L274.445 35.2556C286.927 19.1944 289.557 19.0699 288.383 17.9502C288.112 17.69 287.672 17.69 287.39 17.9389Z" fill="white"/>
<path d="M201.198 264.197C198.703 265.418 224.842 232.481 233.024 180.746C236.884 156.371 236.929 125.821 250.789 114.046C262.323 104.251 301.565 110.438 314.409 112.78C316.011 113.074 316.553 115.11 315.3 116.162C309.138 121.342 295.967 133.569 292.536 145.886C288.01 162.128 272.605 172.455 258.813 175.249C245.022 178.043 237.347 180.757 230.632 202.858C223.917 224.971 208.297 260.702 201.198 264.197Z" fill="#452C7A"/>
<path opacity="0.56" d="M296.351 119.645C279.963 120.335 262.38 127.823 253.452 141.871L252.606 143.217C250.665 146.361 239.638 168.711 233.51 187.227C233.431 187.453 233.555 187.702 233.792 187.781C234.187 187.906 234.379 187.476 234.345 187.521C238.611 177.059 244.739 163.791 249.615 153.872C254.852 143.047 258.509 135.718 270.449 128.694C283.733 121.127 296.43 120.347 296.396 120.358C296.588 120.335 296.735 120.166 296.712 119.973C296.701 119.77 296.543 119.634 296.351 119.645Z" fill="white"/>
<path d="M212.405 268.529C210.926 269.309 220.756 252.354 221.501 237.413C222.258 222.471 225.621 196.977 238.476 181.73C251.331 166.483 265.404 165.092 283.146 178.948C297.931 190.507 307.152 196.332 312.558 197.418C313.901 197.689 314.578 199.205 313.923 200.404C310.459 206.806 300.651 221.51 284.184 220.469C263.181 219.146 237.731 205.471 229.977 216.884C222.224 228.296 223.217 234.687 222.98 240.094C222.743 245.5 222.212 263.348 212.405 268.529Z" fill="#FEC214"/>
<path opacity="0.34" d="M287.277 197.26C279.636 191.084 267.188 185.01 256.308 186.141C242.155 188.064 232.72 196.038 227.585 207.903C225.576 212.948 224.752 215.628 223.555 221.815C223.465 222.313 224.323 222.46 224.47 221.974C225.339 219.067 226.196 216.035 227.472 212.891C234.932 192.622 250.857 189.885 251.477 189.478C252.685 189.58 259.976 184.965 277.3 192.826C280.539 194.308 283.688 196.004 286.634 197.87L286.645 197.882C286.859 198.017 287.164 197.984 287.322 197.803C287.48 197.633 287.446 197.407 287.277 197.26Z" fill="white"/>
<path d="M63.2812 19.5563C62.2768 66.8127 59.0377 229.812 60.5839 287.565C60.7531 293.684 64.929 298.593 70.1545 298.796C95.9658 299.792 190.6 302.291 232.821 300.221C241.613 299.792 248.61 291.433 248.791 281.118C249.671 231.52 251.601 92.013 247.008 28.1072C246.455 20.4499 241.331 14.3534 234.808 13.5842C206.705 10.2928 111.665 2.22824 75.1768 5.01068C68.6083 5.50836 63.4505 11.8198 63.2812 19.5563Z" fill="url(#paint0_linear_3_3218)"/>
<path d="M74.6519 30.7722C73.2624 69.4381 68.8791 198.072 70.2687 245.648C70.472 252.597 75.0925 258.227 80.9331 258.628C105.019 260.302 187.171 263.995 222.497 260.635C228.858 260.027 233.851 253.927 234.19 246.359C235.975 206.913 241.115 87.1313 239.782 40.0947C239.567 32.5954 234.676 26.4607 228.372 25.7956C202.321 23.0207 115.017 16.4044 85.0001 18.3537C79.3741 18.7092 74.8892 24.0871 74.6519 30.7722Z" fill="url(#paint1_linear_3_3218)"/>
<path d="M127.082 13.2676C127.082 14.7153 128.041 15.9143 129.283 15.9934C135.377 16.3667 152.554 17.4299 160.229 17.9502C161.741 18.052 162.926 16.4572 162.644 14.7153L162.599 14.4212C162.407 13.2336 161.561 12.3288 160.534 12.227C155.342 11.6727 139.688 10.1232 129.316 10.553C128.064 10.5869 127.082 11.7972 127.082 13.2676Z" fill="url(#paint2_linear_3_3218)"/>
<path d="M149.365 142.946C176.629 142.946 198.731 120.797 198.731 93.4732C198.731 66.1499 176.629 44 149.365 44C122.102 44 99.9999 66.1499 99.9999 93.4732C99.9999 120.797 122.102 142.946 149.365 142.946Z" fill="white"/>
<g opacity="0.07">
<path d="M149.539 93.1405C142.429 93.0604 136.623 86.3612 136.623 78.1673C136.623 69.9734 142.429 63.461 149.539 63.5678C156.623 63.7012 162.403 70.4005 162.403 78.5143C162.376 86.6815 156.623 93.2206 149.539 93.1405ZM149.539 67.0909C144.32 67.0108 140.058 72.0019 140.058 78.2207C140.058 84.4395 144.32 89.564 149.539 89.6174C154.733 89.6708 158.967 84.6797 158.967 78.4876C158.967 72.2954 154.733 67.1976 149.539 67.0909Z" fill="#0970D7"/>
<path d="M176.757 119.137C174.467 105.605 172.177 92.1796 169.886 78.621C169.62 77.0997 168.342 76.1121 166.85 76.0855C155.345 75.9253 143.76 75.7385 132.149 75.5783C130.631 75.5517 129.326 76.5392 129.059 78.0605C126.716 91.6725 124.399 105.231 122.055 118.87C121.869 120.018 122.188 121.379 122.907 122.259C123.653 123.167 124.745 123.834 125.89 123.861C141.71 123.941 157.423 124.021 173.029 124.101C174.147 124.101 175.213 123.407 175.958 122.526C176.624 121.646 176.944 120.284 176.757 119.137Z" fill="#452C7A"/>
</g>
<path opacity="0.57" d="M215.373 176.063H98.5843C97.8958 176.063 97.3428 175.509 97.3428 174.819V160.556C97.3428 159.866 97.8958 159.312 98.5843 159.312H215.373C216.061 159.312 216.614 159.866 216.614 160.556V174.819C216.614 175.498 216.061 176.063 215.373 176.063Z" fill="white"/>
<path opacity="0.57" d="M224.549 209.555H88.6524C87.9978 209.555 87.4674 209.023 87.4674 208.367V193.233C87.4674 192.577 87.9978 192.045 88.6524 192.045H224.549C225.203 192.045 225.734 192.577 225.734 193.233V208.367C225.734 209.023 225.203 209.555 224.549 209.555Z" fill="white"/>
<path d="M184.505 200.347C183.998 200.347 183.569 199.94 183.557 199.42C183.546 199.069 183.32 190.677 185.826 181.73C189.2 169.673 195.961 162.536 205.374 161.077C210.035 160.353 214.188 161.461 217.709 164.368C228.995 173.688 230.068 198.323 230.113 199.363C230.135 199.884 229.729 200.336 229.199 200.347C228.679 200.359 228.228 199.963 228.217 199.431C228.205 199.182 227.133 174.604 216.502 165.827C213.421 163.282 209.775 162.309 205.667 162.954C184.675 166.212 185.453 199.035 185.453 199.363C185.465 199.884 185.058 200.325 184.528 200.347C184.528 200.347 184.517 200.347 184.505 200.347Z" fill="#DCA903"/>
<path d="M159.811 192.611C159.89 192.045 160.376 191.616 160.951 191.604L223.522 190.564L244.006 312.98H145.14C141.742 312.98 159.811 192.611 159.811 192.611Z" fill="url(#paint3_linear_3_3218)"/>
<path d="M234.458 191.514L223.51 190.575L244.006 312.98H256.263C258.746 312.98 260.608 310.695 260.1 308.252L236.151 193.007C235.981 192.192 235.293 191.582 234.458 191.514Z" fill="url(#paint4_linear_3_3218)"/>
<path d="M170.849 200.087C170.341 200.087 169.913 199.68 169.901 199.16C169.89 198.809 169.664 190.417 172.17 181.47C175.544 169.413 182.305 162.276 191.717 160.816C196.378 160.093 200.532 161.201 204.053 164.108C215.339 173.428 216.411 198.063 216.456 199.103C216.479 199.624 216.073 200.076 215.542 200.087C215.034 200.099 214.572 199.703 214.56 199.171C214.549 198.922 213.477 174.344 202.845 165.567C199.764 163.022 196.119 162.049 192.011 162.694C171.019 165.952 171.797 198.775 171.797 199.103C171.809 199.624 171.402 200.065 170.872 200.087C170.872 200.087 170.861 200.087 170.849 200.087Z" fill="#DCA903"/>
<path opacity="0.7" d="M190.882 277.329C189.313 277.43 187.857 276.695 187.045 275.394L173.422 253.463C172.147 251.404 172.836 248.588 174.957 247.174C177.079 245.76 179.833 246.28 181.108 248.328L190.555 263.552L203.026 238.103C204.143 235.818 206.829 234.766 209.03 235.761C211.231 236.757 212.1 239.404 210.983 241.688L194.866 274.603C194.132 276.107 192.665 277.148 191.04 277.306C190.984 277.317 190.927 277.317 190.882 277.329Z" fill="white"/>
<path d="M277.006 245.353C276.995 245.127 276.002 222.268 266.036 214.034C263.079 211.59 259.592 210.663 255.664 211.274C247.403 212.552 241.681 218.648 238.679 229.382C236.422 237.447 236.625 245.24 236.636 245.319L235.88 245.342C235.88 245.263 235.665 237.368 237.945 229.19C239.3 224.372 241.241 220.39 243.724 217.359C246.85 213.547 250.834 211.251 255.563 210.516C259.716 209.871 263.407 210.855 266.533 213.434C270.833 216.986 274.038 223.444 276.047 232.606C277.537 239.404 277.774 245.251 277.785 245.308L277.006 245.353Z" fill="#452C7A"/>
<path d="M204.663 308.863L214.764 242.129C214.865 241.496 215.407 241.021 216.05 241.01L274.422 240.048L287.051 315.389H209.64C206.344 315.378 204.177 312.12 204.663 308.863Z" fill="url(#paint5_linear_3_3218)"/>
<path d="M285.674 240.998L274.422 240.037L287.051 315.378L299.511 315.05C300.741 315.016 301.644 313.874 301.384 312.675L286.543 241.711C286.43 241.315 286.08 241.032 285.674 240.998Z" fill="url(#paint6_linear_3_3218)"/>
<path d="M264.422 245.116C264.411 244.889 263.418 222.03 253.452 213.796C250.495 211.353 247.008 210.425 243.08 211.036C234.819 212.314 229.097 218.411 226.095 229.145C223.838 237.209 224.041 245.002 224.052 245.082L223.296 245.104C223.296 245.025 223.081 237.13 225.361 228.952C226.716 224.134 228.657 220.153 231.14 217.121C234.266 213.31 238.25 211.014 242.979 210.278C247.132 209.634 250.823 210.618 253.949 213.197C258.249 216.748 261.454 223.207 263.463 232.368C264.953 239.166 265.19 245.014 265.201 245.07L264.422 245.116Z" fill="#452C7A"/>
<path opacity="0.7" d="M246.229 299.826C244.909 299.916 243.679 299.294 242.99 298.197L231.478 279.681C230.395 277.951 230.982 275.564 232.776 274.376C234.571 273.177 236.896 273.619 237.968 275.349L245.947 288.198L256.477 266.708C257.425 264.774 259.694 263.891 261.545 264.728C263.395 265.565 264.14 267.805 263.192 269.728L249.581 297.518C248.96 298.796 247.719 299.667 246.342 299.803C246.32 299.826 246.274 299.826 246.229 299.826Z" fill="white"/>
<g opacity="0.3">
<path opacity="0.3" d="M27.6397 56.2937C27.1883 56.4633 26.6691 56.271 26.4434 55.8299C25.9581 54.8572 25.5066 53.8505 25.1003 52.8326C24.9085 52.3349 25.1455 51.7807 25.6308 51.5771C25.6421 51.5771 25.6421 51.5771 25.6534 51.5658C26.1387 51.3848 26.6917 51.6223 26.8835 52.1087C27.2673 53.0701 27.6961 54.0315 28.1589 54.959C28.3959 55.434 28.204 56.0109 27.73 56.2484C27.6961 56.271 27.6736 56.2823 27.6397 56.2937ZM24.7279 48.4214C24.694 48.4327 24.6602 48.444 24.615 48.4553C24.0959 48.5797 23.5767 48.2743 23.4526 47.754C23.193 46.6908 22.9673 45.605 22.798 44.5418C22.719 44.0215 23.0688 43.5238 23.5993 43.4333C24.1184 43.3541 24.615 43.7048 24.7053 44.2364C24.8633 45.2543 25.0778 46.2836 25.3261 47.2903C25.4389 47.7653 25.1793 48.2517 24.7279 48.4214ZM23.6331 40.0966C23.5316 40.1306 23.43 40.1532 23.3171 40.1532C22.7867 40.1645 22.3465 39.7347 22.3352 39.2031C22.3127 38.1173 22.3352 37.0088 22.4142 35.923C22.4481 35.3914 22.9108 34.9955 23.4413 35.0294C23.9717 35.0634 24.3667 35.5271 24.3329 36.0587C24.2652 37.088 24.2426 38.1399 24.2539 39.1805C24.2652 39.599 24.0056 39.9609 23.6331 40.0966ZM24.4119 31.738C24.2426 31.8059 24.062 31.8172 23.8701 31.7832C23.351 31.6701 23.0124 31.1611 23.1253 30.6409C23.351 29.5776 23.6219 28.5031 23.9379 27.4512C24.0959 26.9422 24.6263 26.6482 25.1342 26.8065C25.6421 26.9649 25.9355 27.4965 25.7775 28.0054C25.4841 29.0008 25.2245 30.0188 25.01 31.0367C24.9423 31.3761 24.7166 31.6249 24.4119 31.738ZM27.0415 23.7639C26.8045 23.8544 26.545 23.8544 26.2967 23.7413C25.8114 23.5151 25.5969 22.9495 25.8226 22.4632C26.2741 21.4678 26.782 20.4838 27.3124 19.5337C27.572 19.0699 28.1589 18.9116 28.6216 19.1717C29.0843 19.4319 29.2423 20.0201 28.9828 20.4838C28.4749 21.3887 28.0009 22.3274 27.5607 23.2662C27.4591 23.5038 27.2673 23.6847 27.0415 23.7639ZM31.3528 16.5703C31.0481 16.6834 30.6982 16.6494 30.4274 16.4345C30.0098 16.1065 29.9308 15.5071 30.2468 15.0886C30.9127 14.2176 31.6124 13.3693 32.346 12.5663C32.7072 12.1704 33.3166 12.1478 33.7004 12.4984C34.0954 12.8603 34.1179 13.4711 33.7681 13.8557C33.0683 14.6248 32.4025 15.4279 31.7704 16.2536C31.6689 16.4119 31.5221 16.5137 31.3528 16.5703ZM63.507 1.94546C63.3829 1.9907 63.2474 2.01333 63.1007 2.00201C62.0737 1.93415 61.0241 1.91153 59.9857 1.93415C59.4553 1.94546 59.0151 1.52696 59.0038 0.995357C58.9926 0.463752 59.4101 0.022632 59.9406 0.0113212C61.0353 -0.0113003 62.1301 0.0113212 63.2249 0.0791857C63.7553 0.113118 64.1616 0.576859 64.1165 1.10846C64.0939 1.49303 63.8456 1.80973 63.507 1.94546ZM37.1539 10.519C36.7815 10.6547 36.3413 10.5529 36.0704 10.2362C35.7319 9.82906 35.7883 9.21828 36.1946 8.87895C37.0298 8.17769 37.9101 7.51035 38.8017 6.88826C39.2418 6.58287 39.84 6.69598 40.1447 7.12579C40.4495 7.56691 40.3366 8.16638 39.9077 8.47177C39.0613 9.05993 38.2261 9.69333 37.4361 10.3607C37.3458 10.4285 37.2442 10.4851 37.1539 10.519ZM55.1327 2.34134C55.0763 2.36396 55.0086 2.38658 54.9408 2.38658C53.9251 2.55624 52.8981 2.75984 51.8936 3.01998C51.3744 3.1444 50.8553 2.83901 50.7311 2.31872C50.607 1.79842 50.9117 1.27813 51.4309 1.15371C52.4918 0.89356 53.5639 0.667345 54.6474 0.486373C55.1666 0.395887 55.6632 0.757831 55.7534 1.27813C55.8212 1.75318 55.5616 2.18299 55.1327 2.34134ZM44.1513 5.91554C43.6999 6.0852 43.1807 5.89291 42.955 5.4518C42.718 4.97674 42.9098 4.39989 43.3839 4.16237C44.3545 3.67601 45.3589 3.21227 46.3747 2.80508C46.386 2.80508 46.386 2.80508 46.3972 2.79377C46.8826 2.6128 47.4356 2.85032 47.6274 3.33668C47.8306 3.83436 47.5823 4.38858 47.097 4.59218C46.1377 4.97674 45.1783 5.41786 44.2642 5.8816C44.219 5.89291 44.1852 5.90423 44.1513 5.91554Z" fill="#452C7A"/>
<path opacity="0.3" d="M70.1771 2.99737C69.9965 3.06523 69.8046 3.07654 69.6015 3.0313C69.1162 2.90688 68.6309 2.79378 68.1456 2.69198C67.6264 2.57887 67.2878 2.06989 67.4007 1.54959C67.5136 1.0293 68.0214 0.689974 68.5406 0.803081C69.0597 0.904878 69.5676 1.0293 70.0755 1.15371C70.5947 1.27813 70.8994 1.80974 70.7752 2.31872C70.6849 2.64674 70.4592 2.88426 70.1771 2.99737Z" fill="#91B3FA"/>
</g>
<g opacity="0.3">
<path opacity="0.3" d="M93.5619 20.71C93.1331 20.8797 92.6252 20.6987 92.3882 20.2915C92.1399 19.8617 91.8803 19.4319 91.6207 19.0021C91.3386 18.5497 91.474 17.9615 91.9255 17.6787C92.3769 17.396 92.9638 17.5317 93.2459 17.9841C93.5281 18.4252 93.7989 18.889 94.0585 19.3414C94.3181 19.8052 94.1601 20.3933 93.6974 20.6535C93.6522 20.6761 93.6071 20.6987 93.5619 20.71Z" fill="#91B3FA"/>
<path opacity="0.3" d="M74.353 74.4927C73.9354 74.651 73.5178 74.7981 73.1002 74.9451C72.5923 75.1148 72.0506 74.8433 71.8813 74.3456C71.712 73.848 71.9829 73.2938 72.4795 73.1241C73.4501 72.7961 74.4094 72.4228 75.3349 72.0156C75.8202 71.8007 76.3845 72.0269 76.5989 72.5133C76.8133 72.9997 76.5876 73.5652 76.1023 73.7801C75.538 74.0289 74.9398 74.2665 74.353 74.4927ZM68.1907 76.2459C68.1456 76.2685 68.0892 76.2798 68.0327 76.2911C66.9831 76.4947 65.9109 76.6644 64.8388 76.7775C64.3083 76.834 63.8343 76.4495 63.7779 75.9292C63.7214 75.3976 64.1052 74.9225 64.6356 74.866C65.6514 74.7528 66.6671 74.6058 67.6716 74.4022C68.1907 74.3004 68.6986 74.6397 68.8002 75.16C68.8905 75.6238 68.6196 76.0762 68.1907 76.2459ZM80.5942 71.4388C80.1653 71.5971 79.68 71.4388 79.4317 71.0429C79.1609 70.5905 79.2963 69.991 79.7477 69.7196C80.6168 69.1879 81.4745 68.6111 82.2984 68.0116C82.7273 67.6949 83.3254 67.7854 83.6414 68.2152C83.9575 68.645 83.8672 69.2445 83.4383 69.5612C82.5693 70.1946 81.6664 70.8054 80.7522 71.3596C80.7071 71.3822 80.6506 71.4162 80.5942 71.4388ZM59.9744 76.9132C59.8616 76.9584 59.7374 76.9811 59.602 76.9697C58.5298 76.9358 57.4463 76.8566 56.3854 76.7435C55.855 76.687 55.4826 76.2006 55.539 75.6803C55.5954 75.1487 56.0807 74.7755 56.5999 74.832C57.6156 74.9451 58.6427 75.0243 59.6584 75.0469C60.1889 75.0582 60.6065 75.5107 60.5952 76.0423C60.5839 76.4495 60.3243 76.7888 59.9744 76.9132ZM87.1063 66.3829C86.7564 66.5186 86.3501 66.4394 86.0793 66.1567C85.7068 65.7721 85.7181 65.1613 86.1018 64.7994C86.8354 64.0868 87.5352 63.3403 88.2123 62.5712C88.5622 62.1753 89.1716 62.13 89.5667 62.4807C89.9617 62.8313 90.0068 63.4421 89.657 63.838C88.9572 64.6523 88.201 65.4328 87.4336 66.1793C87.3433 66.2698 87.2304 66.3376 87.1063 66.3829ZM92.3656 60.0149C92.0835 60.1167 91.7675 60.0941 91.4966 59.9244C91.0564 59.6304 90.9323 59.0309 91.2257 58.5898C91.79 57.7415 92.3092 56.8479 92.7945 55.9544C93.0428 55.4906 93.6297 55.3096 94.1037 55.5698C94.5664 55.8186 94.747 56.4068 94.4874 56.8818C93.9795 57.8206 93.4152 58.7594 92.8284 59.653C92.7155 59.8226 92.5462 59.9471 92.3656 60.0149ZM96.1013 52.6629C95.8869 52.7421 95.6499 52.7534 95.4242 52.6629C94.9276 52.4706 94.6793 51.9164 94.8599 51.4187C95.221 50.4686 95.5483 49.4846 95.8192 48.5006C95.9659 47.9916 96.4963 47.6975 97.0042 47.8332C97.5121 47.9803 97.8055 48.5119 97.6701 49.0209C97.3767 50.0501 97.0381 51.0794 96.6544 52.0861C96.5641 52.3688 96.3609 52.5611 96.1013 52.6629ZM98.1554 44.6549C98.0087 44.7115 97.8507 44.7341 97.6814 44.7115C97.1509 44.6323 96.7898 44.1459 96.8688 43.6256C97.0155 42.619 97.1171 41.5897 97.1735 40.5717C97.2074 40.0401 97.6588 39.6329 98.1893 39.6669C98.7197 39.7008 99.126 40.1532 99.0922 40.6848C99.0357 41.7594 98.9229 42.8339 98.7761 43.9084C98.7197 44.259 98.4714 44.5418 98.1554 44.6549ZM98.415 36.398C98.336 36.432 98.2457 36.4546 98.1554 36.4546C97.625 36.4998 97.1622 36.104 97.1171 35.5724C97.0381 34.5544 96.9026 33.5364 96.7446 32.5298C96.6544 32.0095 97.0155 31.5118 97.5347 31.4213C98.0538 31.3308 98.5504 31.6928 98.6407 32.2131C98.8213 33.2763 98.9454 34.3508 99.0357 35.4253C99.0583 35.8551 98.7987 36.251 98.415 36.398ZM96.8462 28.2882C96.8236 28.2995 96.8124 28.2995 96.7898 28.3109C96.2819 28.4692 95.7402 28.1864 95.5822 27.6775C95.3564 26.9649 95.1194 26.241 94.8486 25.5397C94.7583 25.2909 94.6567 25.0307 94.5551 24.7819C94.352 24.2842 94.6003 23.73 95.0856 23.5264C95.5822 23.3115 96.1352 23.5716 96.3383 24.058C96.4399 24.3182 96.5528 24.5896 96.6431 24.8498C96.9252 25.585 97.1848 26.3428 97.4105 27.1006C97.5685 27.5983 97.3202 28.1073 96.8462 28.2882Z" fill="#452C7A"/>
<path opacity="0.3" d="M51.792 75.7594C51.6114 75.8273 51.4083 75.8386 51.2164 75.7934C50.7085 75.669 50.2006 75.5219 49.6928 75.3636C49.1849 75.2052 48.8915 74.6736 49.0495 74.1646C49.2075 73.6557 49.7379 73.3616 50.2458 73.5199C50.7198 73.667 51.2051 73.8027 51.6904 73.9271C52.2096 74.0628 52.5143 74.5831 52.3789 75.1034C52.2999 75.4088 52.0741 75.6463 51.792 75.7594Z" fill="#91B3FA"/>
</g>
<path d="M49.0607 64.8446C49.23 64.9464 49.4332 64.9238 49.5799 64.7994L53.7106 61.2139C56.1597 61.9604 58.733 62.3223 61.3626 62.2318L64.4099 66.7787C64.5114 66.9371 64.7146 67.0163 64.8952 66.9597L71.238 65.2631C71.4185 65.2179 71.554 65.0482 71.5653 64.8559L71.9603 59.3928C74.2739 58.1486 76.3393 56.5538 78.0886 54.6875L83.4608 55.7394C83.6527 55.7734 83.8446 55.6942 83.9348 55.5245L87.2191 49.8352C87.3207 49.6656 87.2981 49.462 87.174 49.3149L83.5963 45.1752C84.3411 42.7208 84.691 40.1419 84.612 37.5065L89.149 34.4526C89.307 34.3508 89.386 34.1472 89.3296 33.9662L87.6367 27.6096C87.5915 27.4286 87.4223 27.2929 87.2304 27.2816L81.7792 26.8857C80.5377 24.567 78.9464 22.4971 77.0842 20.7439L78.1338 15.36C78.1676 15.1677 78.0886 14.9755 77.9193 14.885L72.2424 11.5935C72.0731 11.4917 71.87 11.5144 71.7233 11.6388L67.6038 15.2243C65.1548 14.4778 62.5815 14.1158 59.9518 14.2063L56.9046 9.6594C56.803 9.50105 56.5999 9.42187 56.4193 9.47843L50.0765 11.175C49.8959 11.2203 49.7605 11.3899 49.7492 11.5822L49.3542 17.0453C47.0405 18.2895 44.9752 19.8843 43.2258 21.7506L37.8536 20.6987C37.6618 20.6648 37.4699 20.7439 37.3796 20.9136L34.0841 26.5916C33.9825 26.7613 34.0051 26.9649 34.1292 27.1119L37.7069 31.2516C36.962 33.7061 36.6122 36.2849 36.6912 38.9203L32.1541 41.9742C31.9961 42.076 31.9171 42.2796 31.9736 42.4606L33.6665 48.8173C33.7116 48.9982 33.8809 49.134 34.0728 49.1453L39.524 49.5411C40.7655 51.8599 42.3568 53.9297 44.219 55.6829L43.1694 61.0668C43.1355 61.2591 43.2145 61.4514 43.3838 61.5419L49.0607 64.8446Z" fill="#452C7A"/>
<path opacity="0.72" d="M62.9878 44.3948C59.9857 45.5372 56.5096 44.3156 54.8957 41.42C53.1237 38.2304 54.2749 34.2038 57.4576 32.428C58.9925 31.5683 60.7757 31.3647 62.4686 31.8511C64.1616 32.3375 65.5723 33.4459 66.4188 34.9955C68.1907 38.1851 67.0395 42.2118 63.8568 43.9876C63.5747 44.1459 63.2812 44.2817 62.9878 44.3948ZM58.8797 33.4685C58.6427 33.559 58.4169 33.6608 58.2025 33.7853C55.7647 35.1425 54.8844 38.2304 56.2387 40.6735C57.593 43.1166 60.6742 43.9989 63.112 42.6416C65.5498 41.2843 66.4301 38.1965 65.0757 35.7533C64.4211 34.5657 63.3377 33.7174 62.0398 33.3441C60.9902 33.0387 59.8841 33.084 58.8797 33.4685Z" fill="white"/>
<path opacity="0.72" d="M66.4752 53.2737C65.9561 53.466 65.4256 53.6356 64.8839 53.7827C64.7146 53.8279 64.5453 53.8732 64.376 53.9071C63.5296 54.0994 62.6718 54.2351 61.8028 54.2917C61.7915 54.2917 61.7802 54.2917 61.7689 54.2917C61.7351 54.2917 61.7012 54.2917 61.6673 54.303C61.5996 54.303 61.5319 54.3143 61.4755 54.3143C61.3062 54.3256 61.1595 54.2125 61.0918 54.0654C61.0805 54.0315 61.0692 53.9863 61.0692 53.9523C61.0579 53.7374 61.2272 53.5565 61.4303 53.5452C62.5251 53.4886 63.6198 53.3189 64.6807 53.0362C69.9739 51.6223 73.8902 47.607 75.4251 42.7321C76.2829 40.0175 76.407 37.0428 75.6283 34.0906C75.4928 33.5704 75.3235 33.0727 75.143 32.575C73.8902 29.2496 71.554 26.4898 68.4503 24.6801C64.8839 22.6102 60.7193 22.056 56.7353 23.1192C48.4964 25.3135 43.5983 33.8192 45.7878 42.0647C45.9232 42.5737 46.0812 43.0714 46.2731 43.5578C47.0744 45.6729 48.3272 47.5957 49.9524 49.1792C49.9975 49.2244 50.0201 49.2697 50.0426 49.3149C50.0991 49.4507 50.0652 49.609 49.9636 49.7221C49.8169 49.8692 49.5686 49.8805 49.4219 49.7334C47.7177 48.0707 46.3972 46.0574 45.5621 43.8292C45.3702 43.3202 45.2009 42.7886 45.0542 42.257C42.7518 33.593 47.9096 24.6801 56.5434 22.3727C60.7306 21.2529 65.0983 21.8411 68.8453 24.0128C72.107 25.9017 74.5561 28.8085 75.8766 32.3035C76.0684 32.8238 76.2377 33.3555 76.3844 33.8984C77.5018 38.0947 76.9149 42.4719 74.748 46.2271C72.8632 49.5072 69.9626 51.9616 66.4752 53.2737Z" fill="white"/>
<g opacity="0.3">
<path opacity="0.3" d="M5.90264 91.6738C5.66563 91.7642 5.38348 91.6964 5.21419 91.4702C4.90946 91.063 4.61602 90.6444 4.33387 90.2259C4.15329 89.9545 4.22101 89.5812 4.50316 89.4002C4.77403 89.2192 5.14647 89.2871 5.32705 89.5699C5.59791 89.9658 5.88007 90.373 6.16222 90.7576C6.36537 91.0177 6.30894 91.391 6.04936 91.5946C6.00421 91.6285 5.95907 91.6624 5.90264 91.6738Z" fill="#91B3FA"/>
<path opacity="0.3" d="M3.49869 87.7828C3.21654 87.8846 2.90053 87.7715 2.75381 87.4887C2.37008 86.7083 2.00893 85.9052 1.7042 85.0909C1.63648 84.9212 1.58005 84.7515 1.51234 84.5706C1.39948 84.2652 1.58005 83.9259 1.87349 83.8127C2.17822 83.6996 2.5168 83.8693 2.62966 84.1747C2.68609 84.3444 2.75381 84.5027 2.81024 84.6724C3.10368 85.4528 3.44226 86.2219 3.80342 86.9571C3.95014 87.2512 3.82599 87.6132 3.53255 87.7602C3.53255 87.7715 3.50998 87.7828 3.49869 87.7828ZM1.43333 81.9578C1.41076 81.9691 1.3769 81.9804 1.35433 81.9804C1.03832 82.0483 0.72231 81.8447 0.643307 81.528C0.417585 80.4987 0.248293 79.4468 0.146718 78.3949C0.11286 78.0669 0.361154 77.7728 0.677165 77.7502C1.00446 77.7163 1.2979 77.9538 1.32047 78.2818C1.41076 79.2771 1.58005 80.2838 1.79449 81.2678C1.87349 81.5619 1.7042 81.856 1.43333 81.9578ZM0.846457 75.8047C0.77874 75.8274 0.699737 75.85 0.620735 75.8387C0.293437 75.8274 0.0338568 75.5559 0.0451429 75.2279C0.0790013 74.176 0.16929 73.1128 0.338582 72.0722C0.383726 71.7442 0.688451 71.5293 1.01575 71.5745C1.34305 71.6198 1.55748 71.9251 1.51234 72.2532C1.35433 73.2485 1.26404 74.2552 1.24147 75.2618C1.23018 75.522 1.07218 75.7256 0.846457 75.8047ZM1.79449 69.6969C1.68163 69.7422 1.5462 69.7535 1.42205 69.7082C1.10604 69.6177 0.92546 69.2897 1.01575 68.973C1.2979 67.9551 1.65906 66.9484 2.06536 65.987C2.1895 65.6816 2.53937 65.5459 2.8441 65.6703C3.14882 65.7947 3.28426 66.1453 3.16011 66.4507C2.7651 67.3782 2.4378 68.3283 2.15565 69.301C2.09922 69.4933 1.96378 69.6404 1.79449 69.6969ZM4.18715 64.0076C4.02914 64.0642 3.83728 64.0642 3.67927 63.9624C3.39712 63.804 3.29554 63.4308 3.46484 63.148C3.99528 62.2318 4.57087 61.3496 5.2029 60.5013C5.39476 60.2411 5.7672 60.1846 6.03807 60.3882C6.29765 60.5805 6.35408 60.9537 6.15093 61.2252C5.55277 62.0282 4.98846 62.8765 4.49187 63.7475C4.42415 63.8719 4.31129 63.9624 4.18715 64.0076ZM7.90028 59.0761C7.69713 59.1553 7.44883 59.1101 7.27954 58.9517C7.04253 58.7255 7.04253 58.3522 7.26826 58.1147C8.00185 57.3569 8.78059 56.633 9.60448 55.977C9.86406 55.7734 10.2365 55.8073 10.4397 56.0675C10.6428 56.3276 10.6089 56.7009 10.3494 56.9045C9.57062 57.5379 8.82574 58.2165 8.126 58.9404C8.047 58.9969 7.97928 59.0422 7.90028 59.0761ZM12.6969 55.1965C12.4373 55.2983 12.1326 55.1965 11.9858 54.9477C11.8166 54.6649 11.8956 54.303 12.1777 54.1333C13.0693 53.5791 14.0061 53.0814 14.9654 52.629C15.2701 52.4933 15.62 52.6177 15.7554 52.9231C15.8908 53.2171 15.7667 53.5791 15.462 53.7148C14.5478 54.1333 13.6562 54.6197 12.8097 55.14C12.7646 55.1626 12.7307 55.1852 12.6969 55.1965ZM21.2969 51.8599C21.263 51.8712 21.2292 51.8825 21.1953 51.8938C20.3489 52.0521 19.4911 52.267 18.6447 52.5159C18.5205 52.5498 18.3964 52.5951 18.2722 52.629C17.9562 52.7308 17.6289 52.5611 17.5273 52.2444C17.4258 51.9277 17.595 51.5884 17.9111 51.4979C18.0465 51.4527 18.1706 51.4187 18.3061 51.3735C19.1864 51.1134 20.078 50.8871 20.9696 50.7175C21.2969 50.6609 21.6016 50.8645 21.658 51.1925C21.7145 51.4753 21.5565 51.7581 21.2969 51.8599Z" fill="#001845"/>
</g>
<g opacity="0.3">
<path opacity="0.3" d="M35.0885 99.9079C34.7838 100.021 34.4452 99.874 34.3211 99.5686C34.1969 99.2632 34.3549 98.9126 34.6597 98.7995C35.5738 98.4375 36.488 98.019 37.3458 97.544C37.6392 97.397 38.0004 97.4987 38.1471 97.7815C38.3051 98.0756 38.1922 98.4262 37.9101 98.5846C37.0072 99.0822 36.0591 99.5234 35.0885 99.9079C35.0885 99.8966 35.0885 99.9079 35.0885 99.9079ZM32.1993 100.847C32.1767 100.858 32.1541 100.858 32.1429 100.869C31.1384 101.129 30.1114 101.333 29.0956 101.469C28.7683 101.514 28.4749 101.288 28.4297 100.96C28.3846 100.632 28.6103 100.338 28.9376 100.293C29.9195 100.157 30.8901 99.9645 31.8494 99.7156C32.1654 99.6365 32.4927 99.8288 32.5717 100.145C32.6395 100.44 32.4814 100.734 32.1993 100.847ZM40.4269 97.0124C40.1786 97.1029 39.8964 97.0237 39.7384 96.7975C39.5466 96.526 39.6143 96.1641 39.8739 95.9718C40.6752 95.3949 41.4539 94.7729 42.1875 94.1055C42.4358 93.8793 42.8082 93.9019 43.0227 94.1395C43.2484 94.377 43.2258 94.7615 42.9888 94.9764C42.2214 95.6777 41.4088 96.3337 40.5736 96.9332C40.5172 96.9671 40.472 97.0011 40.4269 97.0124ZM26.1838 101.65C26.1161 101.672 26.0484 101.684 25.9806 101.684C24.9423 101.695 23.904 101.638 22.877 101.525C22.5497 101.491 22.3127 101.197 22.3578 100.869C22.3917 100.541 22.6851 100.304 23.0124 100.349C23.9943 100.462 24.9875 100.507 25.9806 100.496C26.3079 100.496 26.5788 100.756 26.5788 101.084C26.5675 101.344 26.4095 101.571 26.1838 101.65ZM44.8962 92.9179C44.7043 92.9971 44.4673 92.9631 44.298 92.8161C44.0497 92.6012 44.0159 92.2279 44.2303 91.9791C44.8736 91.2326 45.4718 90.4295 46.0248 89.6152C46.2054 89.3437 46.5778 89.2645 46.8487 89.4455C47.1195 89.6265 47.1985 89.9997 47.018 90.2712C46.4424 91.1308 45.8104 91.9678 45.1445 92.7482C45.0768 92.8274 44.9865 92.884 44.8962 92.9179ZM48.2707 87.862C48.124 87.9185 47.9434 87.9185 47.7967 87.8394C47.5033 87.6923 47.3904 87.3304 47.5371 87.0363C47.9773 86.1541 48.3836 85.2379 48.7109 84.3104C48.8238 84.005 49.1623 83.8467 49.4671 83.9485C49.7718 84.0616 49.9298 84.4009 49.8282 84.7063C49.4783 85.679 49.0608 86.6404 48.598 87.5679C48.519 87.715 48.4062 87.8167 48.2707 87.862ZM50.3248 82.1501C50.2232 82.1953 50.0991 82.1953 49.9862 82.1727C49.6702 82.1048 49.4671 81.7768 49.5348 81.4601C49.7605 80.4987 49.9185 79.5033 50.0201 78.5306C50.0539 78.2026 50.3474 77.9651 50.6747 77.999C51.002 78.0329 51.239 78.327 51.2051 78.655C51.0923 79.6843 50.923 80.7136 50.6972 81.7316C50.6521 81.9238 50.5054 82.0822 50.3248 82.1501Z" fill="#001845"/>
<path opacity="0.3" d="M20.1231 100.982C20.0216 101.028 19.8974 101.028 19.7733 101.005C19.2767 100.892 18.7801 100.756 18.3061 100.609C17.9901 100.519 17.8095 100.179 17.9111 99.8627C18.0014 99.546 18.3399 99.365 18.6559 99.4668C19.1074 99.6026 19.5814 99.727 20.0554 99.8401C20.3714 99.9192 20.5746 100.236 20.4956 100.553C20.4504 100.756 20.3037 100.915 20.1231 100.982Z" fill="#91B3FA"/>
</g>
<path d="M17.8772 93.6078C17.9901 93.6757 18.1255 93.6644 18.2271 93.5739L20.9922 91.176C22.6287 91.6737 24.3554 91.9112 26.1161 91.866L28.1589 94.9086C28.2266 95.0104 28.362 95.0669 28.4862 95.033L32.7297 93.9019C32.8539 93.868 32.9442 93.7549 32.9555 93.6305L33.215 89.9771C34.7612 89.1514 36.1494 88.0769 37.3119 86.8327L40.9009 87.534C41.025 87.5566 41.1492 87.5 41.2169 87.3869L43.4177 83.5752C43.4854 83.4621 43.4741 83.3264 43.3838 83.2246L40.9912 80.4534C41.4878 78.8134 41.7248 77.0828 41.6796 75.3184L44.7156 73.2711C44.8172 73.2032 44.8736 73.0675 44.8397 72.9431L43.7111 68.6903C43.6773 68.5658 43.5644 68.4753 43.4403 68.464L39.7949 68.2039C38.971 66.6543 37.8988 65.2631 36.6573 64.0981L37.357 60.5013C37.3796 60.3768 37.3232 60.2524 37.2103 60.1846L33.4069 57.979C33.294 57.9111 33.1586 57.9224 33.057 58.0129L30.2919 60.4108C28.6555 59.9131 26.9287 59.6756 25.168 59.7208L23.1253 56.6782C23.0575 56.5764 22.9221 56.5199 22.798 56.5538L18.5544 57.6849C18.4302 57.7188 18.3399 57.8206 18.3287 57.9563L18.0691 61.6097C16.5229 62.4354 15.1347 63.5099 13.9722 64.7541L10.3832 64.0528C10.2591 64.0302 10.1349 64.0868 10.0672 64.1999L7.86642 68.0116C7.79871 68.1247 7.80999 68.2604 7.90028 68.3622L10.2929 71.1334C9.79635 72.7734 9.55934 74.504 9.60449 76.2685L6.56852 78.3157C6.46694 78.3836 6.41051 78.5193 6.44437 78.6437L7.57298 82.8966C7.60684 83.021 7.70842 83.1115 7.84385 83.1228L11.4893 83.3829C12.3132 84.9325 13.3853 86.3237 14.6268 87.4887L13.9271 91.0855C13.9045 91.21 13.9609 91.3344 14.0738 91.4022L17.8772 93.6078Z" fill="#001845"/>
<path opacity="0.72" d="M27.2221 80.0123C26.3305 80.3516 25.3486 80.3969 24.4119 80.1254C23.2607 79.7974 22.3014 79.0396 21.7145 77.9877C20.5069 75.816 21.2969 73.0675 23.4525 71.8686C25.6195 70.6583 28.362 71.4501 29.5583 73.6104C30.1452 74.6623 30.2807 75.8726 29.9534 77.0376C29.6261 78.1913 28.8699 79.1527 27.8203 79.7409C27.6284 79.8314 27.4253 79.9332 27.2221 80.0123ZM24.4683 72.6943C24.3216 72.7508 24.1749 72.8187 24.0281 72.8979C22.4368 73.7914 21.8612 75.8047 22.7528 77.3995C23.1817 78.1687 23.8814 78.7342 24.7392 78.9717C25.5856 79.2093 26.4772 79.1075 27.256 78.6777C28.0234 78.2478 28.5877 77.5466 28.8247 76.687C29.0618 75.8387 28.9602 74.9451 28.5313 74.1647C27.7187 72.7282 25.9806 72.1287 24.4683 72.6943Z" fill="white"/>
<path opacity="0.72" d="M29.6373 86.188C29.2875 86.3237 28.9263 86.4368 28.5539 86.5386C27.8203 86.7309 27.0641 86.8553 26.3079 86.9006C26.2741 86.9006 26.2402 86.9006 26.2064 86.9006C25.9468 86.9119 25.7098 86.7535 25.6195 86.516C25.5969 86.4595 25.5856 86.4029 25.5856 86.335C25.5743 86.007 25.8226 85.7243 26.1499 85.713C26.861 85.679 27.5607 85.5659 28.2491 85.3849C28.283 85.3736 28.3281 85.3623 28.362 85.351C29.9872 84.8986 31.4318 84.0616 32.6169 82.9192C33.2602 82.2971 33.8132 81.5845 34.2872 80.8041C34.2872 80.7928 34.2985 80.7928 34.2985 80.7815C34.3098 80.7588 34.3211 80.7475 34.3324 80.7249C35.6754 78.4062 36.0253 75.7029 35.3368 73.1241C35.2465 72.7847 35.145 72.4567 35.0208 72.14C34.2082 69.991 32.6959 68.2039 30.6869 67.0276C28.3733 65.6816 25.6759 65.3309 23.1027 66.0209C20.5294 66.7109 18.3625 68.3622 17.0195 70.6809C15.6764 72.9997 15.3265 75.7029 16.015 78.2818C16.1053 78.6098 16.2069 78.9378 16.331 79.2545C16.8502 80.6231 17.6628 81.8673 18.7124 82.8966C18.7801 82.9644 18.8252 83.0323 18.8591 83.1115C18.9381 83.3151 18.893 83.5639 18.7349 83.7336C18.5092 83.9711 18.1255 83.9711 17.8998 83.7449C16.726 82.6025 15.8118 81.2113 15.2363 79.673C15.1008 79.3224 14.988 78.9604 14.8864 78.5872C14.1189 75.6916 14.5139 72.6716 16.015 70.0815C17.516 67.4913 19.92 65.6363 22.8205 64.8672C25.7098 64.0981 28.7232 64.494 31.3077 65.9983C33.5536 67.3103 35.2465 69.3123 36.1607 71.7102C36.2961 72.0722 36.409 72.4341 36.5106 72.8074C37.9778 78.4288 34.9418 84.186 29.6373 86.188Z" fill="white"/>
<path d="M78.1451 171.991C78.1451 171.991 69.0033 193.131 63.3828 190.315C57.7623 187.498 53.5413 164.244 53.5413 164.244C53.5413 164.244 71.1138 160.013 78.1451 171.991Z" fill="url(#paint7_linear_3_3218)"/>
<path d="M46.3182 303.162C46.3182 303.162 45.5508 307.494 45.1783 311.792C45.0316 313.466 46.3182 314.925 47.9999 314.993C53.6993 315.231 65.8996 315.695 70.2786 315.502C70.9332 315.468 71.3621 314.801 71.1251 314.179C70.922 313.67 70.5269 313.251 70.0304 313.014L49.8846 303.728L46.3182 303.162Z" fill="url(#paint8_linear_3_3218)"/>
<path d="M45.6975 300.617L46.3069 305.798C46.3069 305.798 49.8395 307.449 52.2434 305.594L50.7762 299.814L45.6975 300.617Z" fill="url(#paint9_linear_3_3218)"/>
<path d="M46.1489 203.13C45.8894 204.487 44.7269 270.712 51.792 300.38C51.9049 300.866 51.6679 301.364 51.2051 301.556C50.1217 301.997 47.9999 302.642 45.4492 302.732C44.6592 302.755 43.9594 302.246 43.7337 301.488C41.7135 294.6 32.0413 260.102 30.7772 227.154C29.3665 190.326 30.7772 225.898 30.7772 225.898L31.6011 203.141L46.1489 203.13Z" fill="url(#paint10_linear_3_3218)"/>
<path d="M23.1365 305.424C23.1365 305.424 21.9176 307.607 20.7439 313.432C20.5294 314.484 21.263 315.491 22.3239 315.593C24.2087 315.774 27.1092 316.023 29.4229 316C30.4951 315.989 31.3302 315.061 31.1948 313.998C30.9352 311.872 30.1339 308.388 27.6623 305.673L23.1365 305.424Z" fill="url(#paint11_linear_3_3218)"/>
<path d="M22.0756 298.762L23.509 306.601C23.509 306.601 24.931 307.653 27.73 306.895L27.0415 298.457L22.0756 298.762Z" fill="url(#paint12_linear_3_3218)"/>
<path d="M18.1932 205.166C12.4147 240.105 19.446 291.523 21.8161 301.59C21.9628 302.201 22.4594 302.676 23.0801 302.778C24.141 302.959 25.8791 303.094 27.5946 302.597C28.1814 302.427 28.599 301.884 28.6216 301.273C28.9376 293.141 28.362 243.193 33.7455 223.455C34.0164 222.46 34.6258 221.578 35.4723 220.978L45.9232 213.536L46.7245 201.501L18.1932 205.166Z" fill="url(#paint13_linear_3_3218)"/>
<path d="M55.6406 140.276C34.5468 138.161 18.5882 143.511 18.5882 143.511C13.4305 173.688 17.6854 208.491 17.6854 208.491C31.0933 212.009 46.2054 206.342 46.2054 206.342C48.4287 193.731 58.8233 158.238 58.8233 158.238C67.2878 157.186 60.9563 140.808 55.6406 140.276Z" fill="white"/>
<path d="M40.7654 176.12C40.7654 176.12 21.5791 186.537 15.4507 177.76C14.1754 175.939 13.6223 173.484 13.9271 171.765C8.48716 169.017 3.39712 168.564 0.338583 168.338C-0.462731 172.546 0.801314 177.16 3.2504 181.696C12.6856 199.182 43.1694 180.61 43.1694 180.61L40.7654 176.12Z" fill="url(#paint14_linear_3_3218)"/>
<path d="M51.2051 179.219L57.6946 156.518C57.7736 156.258 57.9881 156.077 58.2589 156.043C59.4327 155.907 62.8411 155.523 66.7687 155.184C71.5089 154.788 77.0052 154.46 80.2895 154.731C80.7522 154.765 81.0344 155.263 80.8312 155.693C78.9577 159.482 71.2719 174.898 67.4233 179.943C67.2991 180.113 67.096 180.203 66.8928 180.203L51.8371 180.067C51.4083 180.056 51.0923 179.638 51.2051 179.219Z" fill="#F68B21"/>
<path d="M42.8308 180.735C41.8263 180.927 40.8557 180.248 40.6526 179.23C40.2801 177.398 39.7836 174.401 40.156 173.043C40.709 171.03 41.7925 168.428 45.3928 169.005C48.993 169.582 53.2253 171.098 53.2253 171.098C53.2253 171.098 53.0109 173.722 50.2796 172.874L51.9726 174.186C51.9726 174.186 51.7356 176.289 49.4219 175.17L51.002 176.912C51.002 176.912 50.0088 178.642 48.3159 177.534C46.86 176.595 46.0474 180.124 42.8308 180.735Z" fill="url(#paint15_linear_3_3218)"/>
<path d="M77.8291 172.285C77.8291 172.285 82.0162 168.202 82.6144 166.2C83.2125 164.198 83.6753 161.427 80.3233 159.991C76.9713 158.566 72.5697 157.593 72.5697 157.593C72.5697 157.593 71.3621 159.934 74.1272 160.669L71.9941 160.884C71.9941 160.884 71.08 162.796 73.6306 163.067L71.3734 163.701C71.3734 163.701 71.2944 165.691 73.3259 165.657C75.3461 165.635 73.3823 170.306 77.8291 172.285Z" fill="url(#paint16_linear_3_3218)"/>
<path d="M39.5804 126.183L34.0728 142.142C33.9825 142.402 34.0954 142.697 34.3324 142.832C35.8334 143.669 41.2395 146.067 47.7629 141.927C48.44 141.498 48.9028 140.796 49.0043 139.993L50.7875 126.171H39.5804V126.183Z" fill="url(#paint17_linear_3_3218)"/>
<path d="M51.5663 111.4C51.5663 111.4 57.6156 122.812 56.8369 127.416C56.0582 132.03 48.5642 131.691 42.0182 127.947L37.4473 115.63L51.5663 111.4Z" fill="url(#paint18_linear_3_3218)"/>
<path d="M42.3117 121.907C42.5825 121.794 42.6728 121.466 42.5148 121.217C42.0295 120.471 41.1266 118.967 40.8332 117.632C40.8332 117.632 39.7497 116.931 43.5983 116.014C47.4581 115.087 53.2028 113.651 54.4104 110.37C55.5841 107.169 52.4917 99.1048 47.5597 105.529C47.3678 105.778 47.0067 105.778 46.8148 105.529C46.0022 104.477 43.8804 102.283 40.9235 103.607C38.1584 104.851 37.8423 106.875 37.8875 107.905C37.8988 108.21 37.6279 108.436 37.3345 108.38C35.935 108.108 32.583 107.882 31.0142 111.332C29.7276 114.171 30.5628 115.777 31.3303 116.569C31.5786 116.829 31.4657 117.247 31.1271 117.349C30.2129 117.632 29.0166 118.412 29.1407 120.573C29.31 123.559 32.6282 123.287 33.5762 123.152C33.7342 123.129 33.8922 123.186 33.9938 123.299C34.8064 124.203 38.4631 128.027 42.4245 128.49C42.7631 128.536 43.034 128.196 42.9211 127.868L41.2056 122.869C41.1266 122.631 41.2395 122.382 41.4652 122.281L42.3117 121.907Z" fill="url(#paint19_linear_3_3218)"/>
<path d="M43.0001 122.62C43.0001 122.62 38.6888 119.657 38.3841 122.156C38.0681 124.645 42.2665 125.764 44.3432 124.837L43.0001 122.62Z" fill="url(#paint20_linear_3_3218)"/>
<path d="M25.2358 160.319L18.5995 143.522C18.5995 143.522 3.36326 153.894 0.0338587 167.275C-0.124147 167.908 0.327298 168.542 0.970607 168.609C4.15329 168.949 9.0289 169.854 13.8142 172.274C15.0218 165.669 25.2358 160.319 25.2358 160.319Z" fill="white"/>
</g>
<defs>
<linearGradient id="paint0_linear_3_3218" x1="336.501" y1="158.825" x2="176.886" y2="154.275" gradientUnits="userSpaceOnUse">
<stop stop-color="#001845"/>
<stop offset="1" stop-color="#03225C"/>
</linearGradient>
<linearGradient id="paint1_linear_3_3218" x1="176.216" y1="247.556" x2="140.204" y2="74.7879" gradientUnits="userSpaceOnUse">
<stop stop-color="#452C7A"/>
<stop offset="1" stop-color="#60459A"/>
</linearGradient>
<linearGradient id="paint2_linear_3_3218" x1="149.327" y1="17.5123" x2="149.159" y2="11.9937" gradientUnits="userSpaceOnUse">
<stop stop-color="#452C7A"/>
<stop offset="1" stop-color="#60459A"/>
</linearGradient>
<linearGradient id="paint3_linear_3_3218" x1="234.959" y1="204.351" x2="337.872" y2="54.5012" gradientUnits="userSpaceOnUse">
<stop stop-color="#FFC300"/>
<stop offset="0.0001" stop-color="#FFC300"/>
<stop offset="1" stop-color="#D2A102"/>
</linearGradient>
<linearGradient id="paint4_linear_3_3218" x1="371.358" y1="108.765" x2="330.217" y2="153.617" gradientUnits="userSpaceOnUse">
<stop stop-color="#FFC300"/>
<stop offset="1" stop-color="#DCA903"/>
</linearGradient>
<linearGradient id="paint5_linear_3_3218" x1="256.113" y1="310.929" x2="248.855" y2="256.228" gradientUnits="userSpaceOnUse">
<stop stop-color="#452C7A"/>
<stop offset="1" stop-color="#60459A"/>
</linearGradient>
<linearGradient id="paint6_linear_3_3218" x1="291.296" y1="310.918" x2="271.924" y2="263.102" gradientUnits="userSpaceOnUse">
<stop stop-color="#452C7A"/>
<stop offset="1" stop-color="#60459A"/>
</linearGradient>
<linearGradient id="paint7_linear_3_3218" x1="53.5338" y1="177.039" x2="78.1426" y2="177.039" gradientUnits="userSpaceOnUse">
<stop stop-color="#FEBBBA"/>
<stop offset="1" stop-color="#FF928E"/>
</linearGradient>
<linearGradient id="paint8_linear_3_3218" x1="57.7463" y1="265.463" x2="58.2748" y2="323.464" gradientUnits="userSpaceOnUse">
<stop stop-color="#001845"/>
<stop offset="1" stop-color="#022566"/>
</linearGradient>
<linearGradient id="paint9_linear_3_3218" x1="45.6921" y1="303.15" x2="52.2459" y2="303.15" gradientUnits="userSpaceOnUse">
<stop stop-color="#FEBBBA"/>
<stop offset="1" stop-color="#FF928E"/>
</linearGradient>
<linearGradient id="paint10_linear_3_3218" x1="38.2869" y1="328.142" x2="42.7795" y2="207.855" gradientUnits="userSpaceOnUse">
<stop stop-color="#001845"/>
<stop offset="1" stop-color="#011F56"/>
</linearGradient>
<linearGradient id="paint11_linear_3_3218" x1="25.529" y1="265.757" x2="26.0575" y2="323.758" gradientUnits="userSpaceOnUse">
<stop stop-color="#001845"/>
<stop offset="1" stop-color="#032563"/>
</linearGradient>
<linearGradient id="paint12_linear_3_3218" x1="22.072" y1="302.813" x2="27.7306" y2="302.813" gradientUnits="userSpaceOnUse">
<stop stop-color="#FEBBBA"/>
<stop offset="1" stop-color="#FF928E"/>
</linearGradient>
<linearGradient id="paint13_linear_3_3218" x1="27.2242" y1="327.729" x2="31.7168" y2="207.442" gradientUnits="userSpaceOnUse">
<stop stop-color="#001845"/>
<stop offset="1" stop-color="#022668"/>
</linearGradient>
<linearGradient id="paint14_linear_3_3218" x1="0.107455" y1="178.763" x2="43.1731" y2="178.763" gradientUnits="userSpaceOnUse">
<stop stop-color="#FEBBBA"/>
<stop offset="1" stop-color="#FF928E"/>
</linearGradient>
<linearGradient id="paint15_linear_3_3218" x1="40.0271" y1="174.845" x2="53.2279" y2="174.845" gradientUnits="userSpaceOnUse">
<stop stop-color="#FEBBBA"/>
<stop offset="1" stop-color="#FF928E"/>
</linearGradient>
<linearGradient id="paint16_linear_3_3218" x1="81.7501" y1="167.817" x2="70.5522" y2="160.811" gradientUnits="userSpaceOnUse">
<stop stop-color="#FEBBBA"/>
<stop offset="1" stop-color="#FF928E"/>
</linearGradient>
<linearGradient id="paint17_linear_3_3218" x1="34.0399" y1="135.24" x2="50.7926" y2="135.24" gradientUnits="userSpaceOnUse">
<stop stop-color="#FEBBBA"/>
<stop offset="1" stop-color="#FF928E"/>
</linearGradient>
<linearGradient id="paint18_linear_3_3218" x1="54.777" y1="124.559" x2="36.3357" y2="113.335" gradientUnits="userSpaceOnUse">
<stop stop-color="#FEBBBA"/>
<stop offset="1" stop-color="#FF928E"/>
</linearGradient>
<linearGradient id="paint19_linear_3_3218" x1="26.6072" y1="101.431" x2="50.4431" y2="120.216" gradientUnits="userSpaceOnUse">
<stop stop-color="#001845"/>
<stop offset="1" stop-color="#032565"/>
</linearGradient>
<linearGradient id="paint20_linear_3_3218" x1="49.9388" y1="128.757" x2="33.347" y2="118.66" gradientUnits="userSpaceOnUse">
<stop stop-color="#FEBBBA"/>
<stop offset="1" stop-color="#FF928E"/>
</linearGradient>
<clipPath id="clip0_3_3218">
<rect width="316" height="316" fill="white"/>
</clipPath>
</defs>
</svg>
